<?xml version="1.0" standalone="no"?>
<!DOCTYPE svg PUBLIC "-//W3C//DTD SVG 20010904//EN"
 "http://www.w3.org/TR/2001/REC-SVG-20010904/DTD/svg10.dtd">
<svg version="1.0" xmlns="http://www.w3.org/2000/svg"
 width="367.000000pt" height="367.000000pt" viewBox="0 0 367.000000 367.000000"
 preserveAspectRatio="xMidYMid meet">

<g transform="translate(0.000000,367.000000) scale(0.100000,-0.100000)"
fill="#000000" stroke="none">
<path d="M2460 3331 c-75 -14 -229 -69 -294 -106 -225 -126 -403 -314 -512
-540 -76 -157 -98 -249 -98 -410 -1 -95 4 -149 17 -202 30 -116 29 -116 127
-34 47 39 116 91 154 117 90 62 161 133 220 222 45 68 68 120 147 327 56 150
158 286 274 365 71 49 185 99 240 106 l50 6 -75 -34 c-198 -89 -355 -244 -450
-443 -15 -33 -48 -121 -73 -195 -93 -284 -177 -396 -386 -517 -31 -18 -52 -33
-47 -33 21 0 156 73 217 119 127 94 182 177 293 446 61 147 108 223 189 311
140 150 268 212 557 269 47 10 89 19 93 22 13 8 -133 105 -209 141 -38 17 -96
38 -129 47 -70 19 -240 28 -305 16z"/>
<path d="M2995 3055 c-80 -27 -77 -30 12 -11 70 15 68 16 102 -52 16 -32 18
-43 9 -46 -7 -3 -46 -15 -86 -27 -107 -33 -215 -100 -302 -188 -94 -97 -129
-155 -201 -342 -81 -211 -95 -235 -174 -315 -81 -81 -149 -127 -255 -171 -41
-18 -102 -45 -135 -61 -33 -16 -70 -33 -82 -36 -44 -14 -22 2 51 37 137 65
278 188 345 300 18 31 64 144 101 252 93 266 143 351 282 480 50 46 62 62 39
49 -52 -29 -177 -150 -226 -218 -50 -70 -110 -188 -155 -302 -66 -169 -102
-229 -184 -308 -73 -71 -164 -126 -296 -180 -125 -51 -150 -68 -150 -102 0
-34 93 -111 186 -155 182 -86 395 -87 619 -2 159 60 272 138 421 289 231 235
328 435 328 679 0 99 -3 119 -33 205 -18 52 -44 116 -57 141 -24 48 -71 109
-82 108 -4 0 -38 -11 -77 -24z"/>
<path d="M648 2723 c-150 -298 -195 -421 -219 -602 -23 -171 18 -336 123 -493
70 -104 150 -178 343 -318 191 -139 253 -189 321 -257 184 -185 224 -389 142
-718 -30 -121 -31 -125 -25 -125 3 0 22 50 42 111 98 302 89 498 -31 684 -34
53 -105 135 -210 241 -280 282 -376 414 -424 584 -30 110 -29 248 5 365 24 83
119 285 134 285 3 0 25 -24 47 -52 23 -29 96 -114 164 -188 163 -181 212 -246
272 -368 49 -99 51 -108 56 -200 3 -81 -1 -122 -27 -248 -17 -83 -31 -164 -30
-180 1 -25 2 -24 10 11 5 22 26 99 47 170 34 118 37 141 37 250 0 102 -4 129
-23 180 -55 141 -124 248 -297 460 -176 215 -223 294 -280 469 -25 75 -45 143
-45 151 0 38 -24 -1 -132 -212z"/>
<path d="M905 2047 c-4 -15 -5 -56 -3 -91 5 -83 46 -164 143 -284 84 -105 101
-134 162 -277 l43 -100 -6 55 c-24 210 -64 301 -199 451 -76 85 -112 149 -123
220 -8 49 -10 51 -17 26z"/>
<path d="M2105 1409 c-290 -31 -548 -194 -685 -434 l-22 -40 28 35 c146 180
284 275 484 333 65 19 100 22 255 22 192 0 256 -8 445 -56 152 -38 160 -40
160 -48 0 -4 -33 -30 -72 -59 -40 -28 -129 -94 -198 -147 -162 -123 -236 -162
-337 -177 -106 -15 -258 7 -416 60 -64 22 -117 38 -117 36 0 -6 198 -114 266
-145 199 -91 361 -122 506 -96 115 20 201 60 383 178 244 157 294 178 544 230
80 16 146 31 148 33 6 6 -362 126 -517 170 -249 70 -550 118 -715 115 -33 -1
-96 -5 -140 -10z"/>
<path d="M1962 1169 c-85 -13 -220 -59 -284 -98 -62 -38 -133 -96 -103 -86
148 54 204 69 352 91 173 26 356 35 453 21 39 -5 51 -4 40 3 -30 21 -167 58
-235 64 -143 14 -161 14 -223 5z"/>
</g>
</svg>
