<svg version="1.1" id="Layer_1" xmlns="http://www.w3.org/2000/svg" xmlns:xlink="http://www.w3.org/1999/xlink" x="0px" y="0px"
	 width="100%" viewBox="0 0 367 367" enable-background="new 0 0 367 367" xml:space="preserve">
<path fill="#000000" opacity="1.000000" stroke="none" 
	d="
M214.000000,368.000000 
	C144.023666,368.000000 74.547287,367.972748 5.071137,368.085358 
	C1.804361,368.090637 0.892565,367.644135 0.896298,364.073608 
	C1.021372,244.447830 1.023419,124.821869 0.891672,5.196089 
	C0.887542,1.445933 1.838954,0.911424 5.301209,0.914401 
	C124.760422,1.017145 244.219757,1.015987 363.678986,0.918966 
	C367.087708,0.916198 368.116669,1.371348 368.112305,5.176293 
	C367.975372,124.802055 367.979309,244.428024 368.101471,364.053833 
	C368.105072,367.583771 367.258453,368.098022 363.948578,368.089447 
	C314.132629,367.960388 264.316284,368.000000 214.000000,368.000000 
z"/>
<path fill="#3D271F" opacity="1.000000" stroke="none" 
	d="
M43.776978,157.459778 
	C44.396832,143.806076 49.087456,131.760941 53.987278,119.706596 
	C60.030869,104.838394 68.986656,91.428429 75.171417,76.640388 
	C75.741211,75.277962 76.475357,73.165985 78.390480,73.353180 
	C80.260818,73.535995 79.951416,75.609634 80.251892,77.005074 
	C85.100067,99.520294 96.394051,118.447205 111.302055,135.818283 
	C121.125717,147.265015 130.958130,158.974426 137.529678,172.820267 
	C140.926743,179.977676 143.979065,187.296417 144.944183,195.684708 
	C143.991241,198.799515 144.767548,201.610428 144.220398,204.708771 
	C144.280502,205.582657 144.564758,206.103439 144.832184,206.921448 
	C143.194794,208.728790 143.649094,210.802322 143.159454,212.984863 
	C143.129044,219.260742 140.863953,224.697327 138.983124,230.150101 
	C138.509369,231.523544 138.118225,232.803741 137.981293,234.614838 
	C136.374207,236.059479 135.741135,235.231171 135.268478,233.407455 
	C135.083618,232.859375 135.081833,232.634583 135.112854,232.074158 
	C135.835846,230.432175 135.324585,229.004318 135.738037,227.354538 
	C140.310715,218.880188 139.688095,209.930603 139.966263,200.663025 
	C138.854416,198.203461 140.002213,195.906998 139.123169,193.454590 
	C138.184235,187.750916 135.508286,183.152771 132.908905,178.650284 
	C125.978867,166.646423 117.185143,156.102646 107.531158,146.123627 
	C100.013199,138.352554 93.497231,129.612137 86.244453,121.126846 
	C81.201515,117.546501 79.695335,111.726143 76.024376,107.151199 
	C73.697891,109.657333 73.015228,112.649147 71.837265,115.321899 
	C64.968330,130.907120 58.832767,146.762650 58.208488,164.049866 
	C57.731152,177.268127 61.647499,189.321335 69.337677,200.098816 
	C74.686615,207.595154 81.149544,214.089081 88.212181,219.922440 
	C94.751038,225.323196 100.825401,231.244247 107.723686,236.762512 
	C108.034782,236.946030 108.006126,236.987503 108.027962,236.975250 
	C108.504982,237.730881 108.987587,238.471008 110.211388,238.875961 
	C120.366096,249.641907 132.541931,258.287079 139.008621,272.194397 
	C139.839127,273.788269 140.988144,274.855652 141.676697,276.612061 
	C142.944733,279.813080 143.807571,282.807159 143.999237,286.346069 
	C144.625351,287.561554 144.438889,288.561401 144.795685,289.776306 
	C145.013779,290.060638 145.099762,290.343231 145.040115,290.478333 
	C145.916763,292.305939 145.324600,294.149475 145.533203,296.364746 
	C146.285004,299.456909 145.965179,302.145050 145.802795,305.258667 
	C145.557404,306.273438 145.465500,306.860840 145.203979,307.842285 
	C144.977814,308.227448 145.082199,308.540283 145.061157,308.703827 
	C145.175476,312.250092 144.006149,315.462616 143.649628,319.156372 
	C143.249069,321.190002 142.976761,322.867432 142.529419,324.864075 
	C142.058182,327.660156 140.778336,329.837158 140.124161,332.568420 
	C140.010117,333.379028 139.997299,333.870117 139.942154,334.727234 
	C139.261398,335.616821 138.537888,335.834167 137.360992,335.540588 
	C136.384369,334.771698 136.393372,334.012115 136.521286,332.849915 
	C136.727661,331.972198 137.047318,331.595490 137.755524,331.050690 
	C138.010910,330.570526 138.019836,330.379242 138.112915,329.913300 
	C137.973785,327.839783 138.546051,326.109894 138.836197,324.002808 
	C139.016083,323.665680 138.903610,323.451965 138.925156,323.333130 
	C138.913391,321.230743 139.527359,319.323822 139.827637,316.979065 
	C140.015198,316.600555 139.890503,316.466400 139.914124,316.377930 
	C141.081635,310.451385 140.290802,304.556854 140.219147,298.314209 
	C139.987396,297.938354 139.892807,297.682800 139.955811,297.561951 
	C139.052612,295.436035 139.704941,293.290070 139.379913,290.838684 
	C133.147888,271.682251 119.140236,259.604187 104.094963,248.105927 
	C90.152878,237.450760 74.807480,228.490540 62.940132,215.246277 
	C53.656609,204.885651 47.133846,193.101273 44.956047,179.171585 
	C44.677185,177.387909 44.319050,175.616638 43.996880,173.418106 
	C42.954849,167.985092 43.711945,162.922180 43.776978,157.459778 
z"/>
<path fill="#3C261C" opacity="1.000000" stroke="none" 
	d="
M325.843323,96.866531 
	C326.061401,97.153595 326.157593,97.410179 326.070984,97.516342 
	C327.097656,102.799095 326.265869,108.032211 326.217957,113.675415 
	C325.997711,114.114693 325.989746,113.999283 326.047394,113.994720 
	C324.869171,115.308723 325.938477,117.120056 325.123840,118.872635 
	C324.537018,124.747711 322.665863,129.869324 320.739746,135.075027 
	C316.159088,147.455124 308.123871,157.288406 299.684875,167.169357 
	C292.075592,176.078827 283.655640,183.833267 274.127563,190.433548 
	C263.609680,197.719482 252.422531,203.790176 239.671143,206.203827 
	C234.777191,207.130188 230.120636,210.239227 224.499847,208.076401 
	C220.456451,209.031891 216.669876,208.294830 212.492447,208.224640 
	C205.650650,210.203873 200.027496,206.629715 194.168289,205.301880 
	C185.683563,203.379028 179.097595,197.654297 172.143707,192.797607 
	C169.210129,190.748779 168.914001,186.104660 171.326050,183.097336 
	C174.083862,179.658905 177.976379,178.210739 182.011673,177.125519 
	C195.399628,173.525009 207.012741,166.693665 216.450272,156.723587 
	C223.724289,149.039093 228.288147,139.598969 232.271164,129.651611 
	C238.052505,115.213058 243.492386,100.319595 255.647034,89.107513 
	C257.400024,88.594109 257.681824,89.685410 258.123169,91.004135 
	C258.101105,93.506187 256.816498,95.097900 255.673386,96.702385 
	C248.446930,106.845535 244.206467,118.328217 240.497482,130.071960 
	C237.848068,138.460754 235.252991,146.957367 230.672134,154.490768 
	C224.566910,164.531021 216.558044,172.869141 206.168991,178.716583 
	C204.458969,179.679077 202.662064,180.616898 201.077713,182.393173 
	C200.167725,183.298401 199.358276,183.728165 198.186600,184.185699 
	C196.632034,184.498413 195.316330,184.449310 194.022430,185.536423 
	C193.573883,185.820419 193.386734,185.923599 192.904327,186.153137 
	C191.909698,186.535812 191.030319,186.541565 190.999756,187.792053 
	C200.033386,191.942642 209.396286,193.439774 219.415802,193.502731 
	C232.910416,193.357712 245.075104,189.315765 256.533234,183.470947 
	C277.117371,172.970917 292.916718,157.253479 304.209259,137.120102 
	C313.168182,121.147400 317.101105,104.033180 315.009674,85.689995 
	C314.591278,82.020256 313.232086,78.587509 312.437622,74.646088 
	C310.644012,70.529305 308.583618,66.961945 305.734619,63.462624 
	C305.428589,62.684669 305.430206,62.215389 305.770874,61.466980 
	C309.050781,58.300159 311.226196,60.968910 312.387024,62.929691 
	C315.813477,68.717537 319.821442,74.306610 321.001617,81.558136 
	C321.222778,82.186089 321.453949,82.432907 321.883942,82.836555 
	C322.084656,82.991600 322.016785,82.991135 322.028748,82.959366 
	C322.800476,83.939621 322.360352,85.133606 322.672974,86.548584 
	C324.884888,88.437485 324.878479,90.773911 325.039673,93.427498 
	C325.678925,94.635025 325.395996,95.663483 325.843323,96.866531 
z"/>
<path fill="#7D4C2A" opacity="1.000000" stroke="none" 
	d="
M269.964905,50.709969 
	C266.597473,52.829693 263.006195,54.658215 259.380585,56.416000 
	C241.775894,64.951225 230.721161,79.127342 223.970413,97.138496 
	C218.910950,110.637329 214.612137,124.516724 205.125519,135.896164 
	C200.908127,140.955017 196.618851,145.921463 191.059448,149.542297 
	C182.697571,154.988342 175.628235,162.069061 167.284546,168.099518 
	C164.060333,165.412979 164.112610,161.634201 164.407166,158.039124 
	C165.871475,140.167358 171.480606,123.532631 179.957138,107.819160 
	C186.389069,95.895927 193.757980,84.635048 203.624557,75.198250 
	C217.454788,61.970474 233.606812,53.101879 252.533508,49.783283 
	C258.207184,48.788464 264.074707,48.022114 269.964905,50.709969 
z"/>
<path fill="#3B251D" opacity="1.000000" stroke="none" 
	d="
M277.945007,246.024719 
	C260.089111,240.463104 242.187119,236.129837 223.277161,234.968399 
	C219.245697,234.030151 215.537262,234.674698 211.495682,234.722382 
	C203.600433,236.186249 196.020126,237.022797 188.603378,239.210205 
	C178.268539,242.258224 169.669388,248.335510 160.335419,253.880081 
	C159.747589,254.256424 159.497284,254.524567 159.122711,255.044556 
	C158.602173,255.779434 158.222015,256.277435 157.635529,256.894226 
	C156.468109,257.333893 155.649399,257.826996 155.128555,259.168854 
	C154.994354,259.698761 154.908691,259.838806 154.635803,259.977539 
	C153.860062,260.234253 153.217636,260.496735 152.270721,260.824280 
	C152.014481,261.056213 152.035263,261.007172 152.037857,261.034180 
	C150.756622,261.108582 150.506226,260.271942 150.731201,258.842102 
	C162.039734,244.874588 175.995041,235.760498 192.733368,230.588989 
	C201.800797,227.787506 211.039551,226.683212 220.765991,226.084442 
	C225.114990,226.964310 229.151749,226.329742 233.529083,226.268311 
	C234.396591,226.085571 234.901672,226.081665 235.785202,226.095947 
	C237.834244,226.906052 239.625671,226.284348 241.647278,226.774261 
	C242.466736,227.002869 242.979584,227.013901 243.871155,227.093872 
	C245.619751,227.804504 247.053436,227.429428 248.704437,227.237305 
	C257.383575,228.639938 265.852448,230.088730 274.251404,231.867737 
	C281.755341,233.457169 289.254913,235.156570 296.625580,237.264862 
	C307.196899,240.288712 317.783478,243.359970 328.105377,247.119720 
	C334.980316,249.623917 342.360291,250.875168 349.034485,254.710312 
	C346.182343,258.281860 342.096222,256.992371 338.910278,257.635681 
	C326.425171,260.156708 313.819519,261.733551 302.294342,267.920471 
	C294.731293,271.980469 287.438354,276.421814 280.431671,281.301025 
	C268.446991,289.646729 255.832306,296.537384 241.483292,299.811432 
	C239.930054,300.165833 238.235138,299.899414 236.261093,299.927338 
	C232.537933,298.947418 229.072342,299.807129 225.295868,299.225037 
	C224.423935,299.277191 223.920471,299.553284 223.133820,299.878052 
	C221.486832,299.082031 219.942719,299.735962 218.209167,299.199371 
	C217.901276,298.993500 218.041153,298.964600 218.058929,299.033752 
	C216.665131,297.894775 214.917984,298.842255 213.033875,298.178223 
	C211.192795,297.624115 209.709137,297.265289 207.861969,296.771912 
	C205.700134,295.174133 203.466797,294.870270 201.040863,294.147034 
	C190.138412,289.820129 179.566574,285.576599 170.188141,278.304840 
	C169.781357,277.412689 169.953400,276.924133 170.888336,276.752197 
	C172.063889,277.109528 172.849609,277.281158 173.813202,277.700073 
	C185.895203,282.014496 197.748367,286.288666 210.114090,288.772888 
	C228.214218,292.409119 245.028152,289.873932 260.477264,278.948883 
	C272.391846,270.523346 283.411926,260.823059 297.028198,253.845230 
	C290.770081,249.736832 283.521545,250.295868 277.945007,246.024719 
z"/>
<path fill="#3A241C" opacity="1.000000" stroke="none" 
	d="
M270.659546,34.778740 
	C283.061798,37.228401 294.122589,41.607635 303.850800,49.167007 
	C305.785126,50.670094 308.145355,51.616280 310.261536,52.897980 
	C311.333282,53.547100 312.911804,54.246586 312.357208,55.720997 
	C312.004333,56.659042 310.546234,56.914791 309.302460,56.979382 
	C297.144562,57.610687 285.500366,60.800587 274.247925,65.086441 
	C258.077026,71.245667 246.504181,83.012634 237.006668,97.170860 
	C230.502640,106.866653 227.131760,117.911697 222.583969,128.463394 
	C217.384155,140.527908 210.943329,151.759949 199.696594,159.840240 
	C198.287613,160.578751 197.142380,160.943512 196.023026,159.425385 
	C200.813461,152.920151 206.958603,147.919266 210.468887,140.832382 
	C216.087463,129.489120 219.661469,117.364708 224.023804,105.535339 
	C228.239487,94.103638 233.962189,83.568192 242.685440,74.651222 
	C252.427872,64.692467 263.182434,56.479729 276.120361,51.226128 
	C276.421509,51.103844 276.692139,50.906364 276.976990,50.743950 
	C276.804443,50.509628 276.631866,50.275307 276.204346,49.997818 
	C248.291183,45.800915 224.041367,53.758869 202.487762,70.885544 
	C186.717941,83.416405 174.293381,98.619225 166.833267,117.516487 
	C163.082153,127.018501 160.868347,136.879745 160.825165,147.171692 
	C160.815002,149.595001 161.243652,152.256668 158.457031,154.009674 
	C156.740829,153.209137 157.060318,151.902023 156.999802,150.346954 
	C156.257919,149.265396 156.623337,148.291412 156.185684,147.198349 
	C155.977127,146.937683 155.940720,146.526398 155.979752,146.323669 
	C154.914688,143.008423 155.737564,139.800858 155.787399,136.225037 
	C156.023453,135.806992 155.952255,135.397034 155.986481,135.191833 
	C156.737289,134.289154 156.396576,133.349014 156.788162,132.275772 
	C158.102859,120.667664 161.060242,109.865196 166.024139,99.545303 
	C170.971924,89.258904 177.611465,80.273254 184.657028,71.315514 
	C191.249908,62.933319 199.592026,56.869305 207.767029,50.701004 
	C217.614594,43.270699 229.436569,39.300995 241.371384,36.108109 
	C242.968445,35.680851 244.591812,35.351967 246.600372,34.988941 
	C248.677856,34.038212 250.511581,34.700554 252.713165,34.502235 
	C257.062592,34.502407 260.962738,34.502346 265.313232,34.502205 
	C267.264557,34.519321 268.766571,34.458714 270.659546,34.778740 
z"/>
<path fill="#7C4D2C" opacity="1.000000" stroke="none" 
	d="
M107.964279,236.615616 
	C102.542244,234.772766 98.588104,230.424866 94.044075,226.934647 
	C85.345863,220.253647 77.140419,213.006332 70.270561,204.388397 
	C57.139477,187.916046 53.833385,169.270203 58.274986,149.003540 
	C61.568970,133.973373 67.668877,119.951897 74.063622,106.051903 
	C74.461914,105.186165 75.049644,103.940201 75.755203,103.780373 
	C77.230286,103.446205 77.382515,105.120850 77.921524,106.049469 
	C80.654099,110.757195 83.325829,115.500229 85.985916,120.591042 
	C78.287643,133.121613 73.332176,146.387344 69.944885,160.713715 
	C69.115395,165.431015 69.633308,169.788895 69.692337,174.513626 
	C72.184196,183.078232 74.069084,191.450043 78.171692,198.989929 
	C82.815086,207.523682 88.479294,215.311569 95.049507,222.559113 
	C99.261940,227.205795 103.639503,231.685394 107.964279,236.615616 
z"/>
<path fill="#7C4C2B" opacity="1.000000" stroke="none" 
	d="
M277.566132,245.913605 
	C284.881104,246.930557 291.583038,249.432770 298.366394,251.649261 
	C299.259247,251.941025 300.602570,252.057816 300.468842,253.321411 
	C300.403992,253.933975 299.488800,254.646255 298.797668,254.974808 
	C284.691498,261.680756 273.287567,272.356567 260.583130,281.107788 
	C244.213745,292.383545 226.595810,294.270660 207.742722,290.166565 
	C196.148880,287.642731 185.198303,283.341156 174.207428,278.227356 
	C180.846222,278.763245 187.477142,280.701202 194.010361,282.718964 
	C197.137772,283.684875 200.127457,283.827881 203.674744,284.096069 
	C208.405640,284.895294 212.722137,284.350037 217.405731,284.333984 
	C229.388947,282.223602 238.491028,275.194244 247.462341,268.503967 
	C257.422455,261.076263 266.862213,252.942459 277.566132,245.913605 
z"/>
<path fill="#5A3215" opacity="1.000000" stroke="none" 
	d="
M158.090958,154.373688 
	C159.256348,152.752975 159.015320,151.197418 158.991547,149.724319 
	C158.625854,127.072472 166.844818,107.456398 180.685852,90.062256 
	C197.312729,69.167145 218.059128,54.279438 244.614578,48.703209 
	C254.874344,46.548817 265.274689,45.539547 275.715210,49.670181 
	C274.281128,50.318138 272.612854,50.681633 270.574585,51.039448 
	C231.743011,49.598091 205.674561,69.358879 186.376694,100.363472 
	C177.286911,114.967453 170.671463,130.663788 167.600845,147.705200 
	C166.424789,154.232162 165.605499,160.780746 166.996170,167.849564 
	C165.454788,169.412323 165.260742,173.177505 161.907562,170.525864 
	C161.162445,167.925842 160.881393,165.517609 159.256927,163.228577 
	C159.054504,162.514633 159.088943,162.068604 159.132111,161.287155 
	C159.003799,160.111847 159.019684,159.237305 158.408600,158.193665 
	C158.197220,156.869980 158.155075,155.819092 158.090958,154.373688 
z"/>
<path fill="#3A241C" opacity="1.000000" stroke="none" 
	d="
M160.622025,266.268677 
	C169.023132,258.603027 179.190567,255.445892 189.448151,252.553543 
	C192.274918,251.756470 195.257095,251.510529 198.564651,251.007858 
	C202.293228,249.973038 205.701569,250.690536 209.489578,250.768036 
	C220.618454,250.148636 230.595657,253.202347 240.803070,256.975250 
	C241.042755,258.105408 240.485107,258.461823 239.307831,258.225616 
	C237.810303,258.812500 236.610336,258.349030 235.106934,257.956024 
	C233.249390,257.161438 231.603226,257.637970 229.590195,257.497681 
	C226.062393,257.462646 222.948898,257.572357 219.462997,257.228455 
	C211.426086,258.067474 203.787933,259.375153 196.094742,260.093323 
	C184.506317,261.175110 173.509705,264.524139 162.123016,268.060303 
	C159.939026,268.675476 159.467865,268.148438 160.622025,266.268677 
z"/>
<path fill="#5C4B45" opacity="1.000000" stroke="none" 
	d="
M195.605972,158.967590 
	C196.638992,160.002319 197.701004,159.831726 199.063049,159.957336 
	C194.134979,164.137482 188.858002,168.297974 181.850342,170.108109 
	C180.876099,170.460892 180.361465,170.358795 179.954651,169.323837 
	C185.480194,166.226257 190.507172,162.836609 195.605972,158.967590 
z"/>
<path fill="#887B77" opacity="1.000000" stroke="none" 
	d="
M135.108734,342.050659 
	C137.673904,346.036469 135.319031,349.098083 133.238037,352.578491 
	C131.034073,353.249725 131.687454,351.672882 131.768051,350.264435 
	C132.018417,347.035645 133.318680,344.600189 135.108734,342.050659 
z"/>
<path fill="#D9D3D3" opacity="1.000000" stroke="none" 
	d="
M134.587982,249.987213 
	C134.838943,253.373077 134.838943,256.645752 134.838943,259.918396 
	C131.649811,256.520599 130.979507,252.809753 132.088272,248.371216 
	C132.377167,247.891922 132.581085,247.811569 133.063400,247.899429 
	C133.715622,248.604370 133.856750,249.187485 133.693329,249.831284 
	C133.879684,249.819199 133.182129,250.576843 133.925735,250.096176 
	C134.044388,250.019485 134.214035,249.995834 134.587982,249.987213 
z"/>
<path fill="#594741" opacity="1.000000" stroke="none" 
	d="
M257.267212,92.575363 
	C256.797089,91.530457 256.654144,90.523079 256.236511,89.250778 
	C258.064087,87.283852 258.565643,84.089516 261.792084,83.094810 
	C262.816956,82.620750 263.175232,83.077179 263.607361,83.838295 
	C263.687439,84.313698 263.685547,84.508003 263.606812,84.980019 
	C263.440552,85.424370 263.351074,85.591011 263.092987,85.980804 
	C262.802612,86.341171 262.680908,86.478363 262.385986,86.822159 
	C262.003174,87.333466 261.826202,87.656418 261.575195,88.276260 
	C260.651154,90.359367 259.738495,92.075836 257.267212,92.575363 
z"/>
<path fill="#62514B" opacity="1.000000" stroke="none" 
	d="
M263.499146,85.235733 
	C262.941895,84.600090 262.757233,84.040230 262.357788,83.280807 
	C262.199188,79.642082 265.758087,79.364372 267.627136,77.103264 
	C268.709930,77.063553 269.227356,77.576698 269.654968,78.667557 
	C269.124237,82.386642 267.097565,84.409836 263.499146,85.235733 
z"/>
<path fill="#746560" opacity="1.000000" stroke="none" 
	d="
M136.705521,239.799622 
	C137.298401,241.890137 135.349014,243.351471 135.953018,245.643188 
	C135.170822,246.512650 134.417053,246.860016 133.164368,246.344696 
	C132.351089,245.034805 132.525757,243.906754 132.761703,242.418518 
	C135.042831,240.931458 133.360565,238.751678 134.652557,237.188614 
	C135.813965,237.715698 135.833664,238.843719 136.705521,239.799622 
z"/>
<path fill="#9A8A86" opacity="1.000000" stroke="none" 
	d="
M287.800323,66.465141 
	C290.955811,65.163116 293.984619,64.221313 297.375000,63.338116 
	C297.935547,63.551846 298.134521,63.706966 298.382202,64.238800 
	C296.105560,68.581375 292.456726,68.739998 288.242004,67.796120 
	C287.869202,67.295425 287.771393,67.060394 287.800323,66.465141 
z"/>
<path fill="#62514B" opacity="1.000000" stroke="none" 
	d="
M150.619247,258.594727 
	C151.150024,259.154297 151.320877,259.865204 151.766083,260.818665 
	C152.424332,263.428375 149.862640,263.801697 148.987061,265.719788 
	C148.318878,266.393738 147.727905,266.490021 146.866577,265.926758 
	C147.965576,263.327515 148.006256,260.445496 150.619247,258.594727 
z"/>
<path fill="#887B77" opacity="1.000000" stroke="none" 
	d="
M160.564331,266.058228 
	C161.085892,266.757660 159.523438,267.665588 161.450348,268.116180 
	C161.496796,270.168030 158.998535,269.931458 158.145172,271.726227 
	C156.764984,272.209015 155.472458,272.407715 153.973846,271.672119 
	C156.103378,269.751160 158.156708,267.898956 160.564331,266.058228 
z"/>
<path fill="#9F9692" opacity="1.000000" stroke="none" 
	d="
M143.241806,320.279480 
	C143.553253,316.513885 144.064423,313.007538 144.807861,309.184265 
	C146.905930,312.518005 144.716248,315.851654 144.045288,319.679749 
	C143.725372,320.207275 143.583466,320.372986 143.241806,320.279480 
z"/>
<path fill="#9F9692" opacity="1.000000" stroke="none" 
	d="
M140.003433,298.410950 
	C142.191727,303.786469 141.054169,309.747070 140.261292,315.987335 
	C139.964981,310.487518 139.992233,304.685516 140.003433,298.410950 
z"/>
<path fill="#AFA9A6" opacity="1.000000" stroke="none" 
	d="
M176.142548,172.604874 
	C173.476852,173.764908 171.320251,175.803421 167.914398,174.579559 
	C170.418823,172.984421 172.292480,171.007553 175.605713,171.170822 
	C176.289673,171.583542 176.416916,171.965103 176.142548,172.604874 
z"/>
<path fill="#FFFFFF" opacity="1.000000" stroke="none" 
	d="
M145.421082,306.232239 
	C145.358612,303.253113 145.388077,300.660095 145.429733,297.636108 
	C145.452591,296.940063 145.463242,296.674988 145.749908,296.696564 
	C147.976410,299.726776 146.720779,302.763031 146.445190,305.864563 
	C145.884872,306.241791 145.698944,306.430084 145.421082,306.232239 
z"/>
<path fill="#524039" opacity="1.000000" stroke="none" 
	d="
M298.112305,64.226181 
	C297.931854,63.928398 297.709137,63.708481 297.722870,63.552605 
	C299.999237,61.894489 302.471649,61.076534 305.600861,61.148216 
	C305.987427,61.568626 305.977448,61.948227 305.960297,62.613876 
	C303.922424,65.907036 301.368256,66.444992 298.112305,64.226181 
z"/>
<path fill="#CCC7C4" opacity="1.000000" stroke="none" 
	d="
M131.649170,350.017151 
	C132.165359,350.778992 132.344284,351.677643 132.825455,352.742279 
	C135.415283,354.467896 132.352676,355.436890 132.385712,356.899811 
	C130.571381,357.831543 129.764221,357.324371 129.758453,355.284912 
	C130.417725,353.302277 130.864807,351.728119 131.649170,350.017151 
z"/>
<path fill="#746560" opacity="1.000000" stroke="none" 
	d="
M43.601566,157.224854 
	C44.002655,162.044159 44.015499,167.053894 44.012230,172.530106 
	C41.820992,167.898987 43.492439,162.608124 43.601566,157.224854 
z"/>
<path fill="#9F9692" opacity="1.000000" stroke="none" 
	d="
M271.934692,74.495949 
	C273.161011,73.504295 274.272675,72.881439 275.681396,72.126602 
	C276.679260,71.420250 277.382629,71.405495 278.286957,72.328926 
	C278.577271,75.720604 276.529449,76.777046 273.659607,77.412888 
	C272.164368,76.902405 271.796692,75.995453 271.934692,74.495949 
z"/>
<path fill="#FFFFFF" opacity="1.000000" stroke="none" 
	d="
M326.393005,113.911972 
	C325.905243,108.934311 325.812775,103.753922 325.852356,98.098022 
	C328.127625,102.891037 326.664703,108.339783 326.393005,113.911972 
z"/>
<path fill="#746560" opacity="1.000000" stroke="none" 
	d="
M136.544327,334.983887 
	C137.696884,335.003937 138.432312,335.008698 139.533783,335.053345 
	C139.891037,337.218384 138.915695,338.783539 136.802002,339.968079 
	C136.400864,339.853363 136.325485,339.648407 136.117477,339.143921 
	C135.304504,337.525726 135.181412,336.227570 136.544327,334.983887 
z"/>
<path fill="#F7F6F5" opacity="1.000000" stroke="none" 
	d="
M129.618256,355.036865 
	C130.163376,355.759003 130.269745,356.701294 131.733948,356.977509 
	C132.021103,359.557709 129.904099,360.404480 128.397949,361.907593 
	C127.129532,359.272858 129.248688,357.396515 129.618256,355.036865 
z"/>
<path fill="#887B77" opacity="1.000000" stroke="none" 
	d="
M271.730835,74.188828 
	C272.360260,74.826500 272.671173,75.525848 273.008453,76.513351 
	C272.792633,78.795815 271.660004,79.672577 269.338806,79.244011 
	C268.726105,78.482498 268.449066,77.955864 268.037903,77.162003 
	C269.073303,76.013359 270.242828,75.131935 271.730835,74.188828 
z"/>
<path fill="#AA8D79" opacity="1.000000" stroke="none" 
	d="
M217.341980,284.164276 
	C213.480728,285.599457 209.104965,285.115662 204.425766,284.409698 
	C208.378906,284.140411 212.636902,284.132935 217.341980,284.164276 
z"/>
<path fill="#987256" opacity="1.000000" stroke="none" 
	d="
M69.884674,174.439850 
	C68.308678,170.562241 68.935478,166.155090 69.618973,161.428360 
	C69.877106,165.396774 69.902901,169.690826 69.884674,174.439850 
z"/>
<path fill="#7C6E68" opacity="1.000000" stroke="none" 
	d="
M176.277466,172.820419 
	C175.879471,172.460861 175.860962,172.115021 175.910980,171.518417 
	C176.576416,169.779343 178.152786,169.701431 179.623657,168.921967 
	C180.268829,169.187241 180.569794,169.506485 181.178055,169.955826 
	C180.938889,172.869629 178.246979,171.883942 176.277466,172.820419 
z"/>
<path fill="#62514B" opacity="1.000000" stroke="none" 
	d="
M233.439362,226.042816 
	C229.897659,227.778885 225.784653,226.836090 221.413712,226.368958 
	C225.077026,226.063232 229.032120,226.029709 233.439362,226.042816 
z"/>
<path fill="#62514B" opacity="1.000000" stroke="none" 
	d="
M266.330078,34.721275 
	C261.957611,34.940063 257.849579,34.935699 253.296219,34.556988 
	C256.937134,34.115650 261.023407,34.048664 265.574768,34.032959 
	C266.224762,34.222206 266.409637,34.360168 266.330078,34.721275 
z"/>
<path fill="#C0B8B5" opacity="1.000000" stroke="none" 
	d="
M140.378769,332.807953 
	C138.750977,330.389191 141.453140,328.703979 141.551880,326.186279 
	C141.950089,325.745728 142.138657,325.561829 142.578796,325.682617 
	C142.699646,328.410706 141.820633,330.601532 140.378769,332.807953 
z"/>
<path fill="#5C4B45" opacity="1.000000" stroke="none" 
	d="
M136.915466,239.722733 
	C135.634628,239.778610 135.003006,239.017700 135.011475,237.398148 
	C135.001572,236.001968 134.997147,234.938934 135.039062,233.480042 
	C135.854935,233.673340 136.624451,234.262512 137.679184,234.933289 
	C137.517548,236.456482 135.746231,237.589981 136.915466,239.722733 
z"/>
<path fill="#938884" opacity="1.000000" stroke="none" 
	d="
M132.926971,246.171585 
	C133.907013,245.946640 134.570862,245.953476 135.564758,245.997192 
	C135.580994,247.152451 135.267166,248.270828 134.896149,249.744812 
	C133.864197,250.276825 134.322693,252.317245 133.234329,251.700882 
	C132.716675,251.407715 133.005737,249.690094 132.865540,248.271637 
	C132.568100,247.439438 132.504486,246.932068 132.926971,246.171585 
z"/>
<path fill="#5C4B45" opacity="1.000000" stroke="none" 
	d="
M211.583679,234.924194 
	C214.797623,233.355331 218.547531,233.849472 222.601196,234.664459 
	C219.278412,234.934006 215.654556,234.944351 211.583679,234.924194 
z"/>
<path fill="#9F9692" opacity="1.000000" stroke="none" 
	d="
M141.934036,276.542999 
	C139.612350,276.736908 139.799438,274.587646 138.966034,272.909851 
	C139.374161,272.656921 139.769714,272.780304 140.485748,272.906830 
	C141.538071,272.483765 142.308395,272.281158 143.474365,272.759521 
	C143.190491,274.082794 142.584549,275.152466 141.934036,276.542999 
z"/>
<path fill="#9A8A86" opacity="1.000000" stroke="none" 
	d="
M143.892578,272.713776 
	C143.048370,272.997223 142.300323,272.981323 141.179260,272.937683 
	C142.645660,272.258636 140.739059,269.208649 143.671631,269.080780 
	C144.518295,269.132507 144.953796,269.255432 145.572525,269.780640 
	C145.824631,271.320374 144.548401,271.594025 143.892578,272.713776 
z"/>
<path fill="#7C6E68" opacity="1.000000" stroke="none" 
	d="
M212.276215,208.378250 
	C215.788864,208.003830 219.509140,207.994843 223.703262,207.999786 
	C220.394608,210.103043 216.390137,208.637192 212.276215,208.378250 
z"/>
<path fill="#FFFFFF" opacity="1.000000" stroke="none" 
	d="
M287.562988,66.058456 
	C287.962830,66.276230 287.998596,66.447540 288.085510,66.876343 
	C288.216431,69.382225 286.685303,69.992088 284.456848,70.318832 
	C283.457794,70.197823 282.935059,69.976547 282.190765,69.310722 
	C282.797668,66.416519 285.580261,67.249878 287.562988,66.058456 
z"/>
<path fill="#D9D3D3" opacity="1.000000" stroke="none" 
	d="
M157.976852,272.029541 
	C160.041550,271.809357 161.955536,272.143738 163.694153,273.887329 
	C163.946869,274.419128 164.102325,274.592041 164.056976,275.050354 
	C163.400177,275.448608 162.939819,275.470856 162.158829,275.254364 
	C161.842575,275.106110 161.935898,275.097015 161.932861,275.143799 
	C161.794937,274.854279 161.586502,274.572357 161.084366,274.192535 
	C159.550949,274.368683 158.860870,273.501190 158.114258,272.309814 
	C158.058960,271.983551 157.980286,271.990234 157.976852,272.029541 
z"/>
<path fill="#C0B8B5" opacity="1.000000" stroke="none" 
	d="
M200.931641,294.294067 
	C203.192825,293.782745 205.311691,294.522736 207.313080,296.393341 
	C205.275131,296.256805 203.043091,295.903778 200.931641,294.294067 
z"/>
<path fill="#746560" opacity="1.000000" stroke="none" 
	d="
M239.127853,258.292938 
	C239.567535,257.868652 240.136017,257.731232 240.917206,257.389038 
	C242.304504,258.682129 244.854874,257.252289 245.867737,259.647369 
	C243.424103,260.426788 241.342972,259.481476 239.127853,258.292938 
z"/>
<path fill="#746560" opacity="1.000000" stroke="none" 
	d="
M225.153839,299.364624 
	C228.411957,299.109283 231.896530,299.217499 235.648666,299.629700 
	C232.404251,299.865204 228.892258,299.796692 225.153839,299.364624 
z"/>
<path fill="#A69F9B" opacity="1.000000" stroke="none" 
	d="
M219.267914,257.406067 
	C222.403717,257.026093 225.718567,257.028473 229.484192,257.069855 
	C230.154495,257.231964 230.374008,257.355072 230.272369,257.676697 
	C226.449783,257.846252 222.948364,257.817322 219.267914,257.406067 
z"/>
<path fill="#938884" opacity="1.000000" stroke="none" 
	d="
M209.716583,250.601807 
	C206.562881,251.013351 203.219528,251.052536 199.418762,251.047882 
	C202.347000,248.887878 206.006607,250.508682 209.716583,250.601807 
z"/>
<path fill="#C0B8B5" opacity="1.000000" stroke="none" 
	d="
M278.389893,73.313400 
	C277.546204,72.763504 277.072052,72.413574 276.288208,72.029137 
	C276.480530,70.466301 277.536163,69.785164 279.482880,69.941101 
	C280.389282,69.629875 280.866028,69.724205 281.389771,70.624962 
	C281.339233,72.674561 280.443634,73.530365 278.389893,73.313400 
z"/>
<path fill="#3A241C" opacity="1.000000" stroke="none" 
	d="
M159.001587,163.329041 
	C162.022446,164.184082 161.699905,166.900070 161.869781,169.788391 
	C160.117462,168.367554 159.813232,165.916992 159.001587,163.329041 
z"/>
<path fill="#7C6E68" opacity="1.000000" stroke="none" 
	d="
M145.896729,269.750092 
	C145.299713,269.898254 144.805908,269.747314 144.178558,269.369873 
	C144.280762,268.024506 142.944565,266.338226 145.600922,265.955994 
	C146.269073,266.254822 146.599335,266.428894 147.270874,266.560486 
	C147.684967,266.766022 147.811707,266.916412 147.843262,267.345947 
	C147.165390,268.233765 146.582672,268.842407 145.896729,269.750092 
z"/>
<path fill="#B6ADAA" opacity="1.000000" stroke="none" 
	d="
M155.644882,136.020477 
	C156.048233,138.934280 156.073029,142.061554 156.058289,145.654892 
	C153.930588,142.965118 155.294220,139.546600 155.644882,136.020477 
z"/>
<path fill="#CCC7C4" opacity="1.000000" stroke="none" 
	d="
M142.940781,325.606873 
	C142.652374,325.974731 142.474396,325.962219 142.028961,325.939636 
	C142.115128,324.199768 142.468765,322.469910 142.932236,320.380157 
	C143.042068,320.020233 143.455154,320.012787 143.661224,320.027191 
	C144.494598,321.911438 143.923615,323.592712 142.940781,325.606873 
z"/>
<path fill="#9F9692" opacity="1.000000" stroke="none" 
	d="
M139.687256,316.804260 
	C140.602219,318.658966 139.961533,320.618500 139.239578,322.904724 
	C136.798828,320.993622 139.378448,319.087189 139.687256,316.804260 
z"/>
<path fill="#A69F9B" opacity="1.000000" stroke="none" 
	d="
M144.376343,204.873169 
	C144.074493,202.210754 144.152725,199.359604 144.584686,196.300034 
	C144.877762,198.955887 144.817108,201.820160 144.376343,204.873169 
z"/>
<path fill="#D9D3D3" opacity="1.000000" stroke="none" 
	d="
M137.015930,334.599609 
	C136.628647,336.054474 136.295837,337.109772 135.973938,338.504730 
	C133.667480,336.837128 135.157883,334.833771 136.027649,332.439514 
	C136.325211,331.902252 136.586105,331.755280 137.276215,331.740662 
	C137.493759,332.648682 137.282089,333.424377 137.015930,334.599609 
z"/>
<path fill="#887B77" opacity="1.000000" stroke="none" 
	d="
M163.899475,275.267761 
	C163.736176,275.081177 163.597748,274.652771 163.694580,274.449463 
	C165.453644,274.584991 167.115875,274.923798 168.909729,275.616974 
	C168.767212,276.600677 168.258636,276.915314 167.298920,277.095459 
	C166.386993,276.923889 165.784119,276.696106 165.078064,276.152893 
	C164.687164,275.670959 164.383118,275.543274 163.899475,275.267761 
z"/>
<path fill="#9A8A86" opacity="1.000000" stroke="none" 
	d="
M143.321106,213.121399 
	C142.881104,211.245636 142.510681,209.137070 144.468719,207.315186 
	C144.429916,209.125946 144.044495,211.033218 143.321106,213.121399 
z"/>
<path fill="#A69F9B" opacity="1.000000" stroke="none" 
	d="
M138.919189,193.358704 
	C140.071594,195.045853 140.044312,197.234192 140.111816,199.800842 
	C137.544525,198.406113 140.001755,195.700043 138.919189,193.358704 
z"/>
<path fill="#9F9692" opacity="1.000000" stroke="none" 
	d="
M138.689270,323.833344 
	C139.424271,325.492218 138.948837,327.248352 138.393433,329.326172 
	C136.197357,327.699158 138.255966,325.878723 138.689270,323.833344 
z"/>
<path fill="#AFA9A6" opacity="1.000000" stroke="none" 
	d="
M139.277435,290.862793 
	C139.626358,292.520599 139.970306,294.584595 140.166534,297.044861 
	C137.843567,295.616669 139.429962,293.337372 139.277435,290.862793 
z"/>
<path fill="#594741" opacity="1.000000" stroke="none" 
	d="
M167.201675,277.397949 
	C167.465363,276.787506 167.940872,276.423370 168.728851,276.015289 
	C169.672028,276.104370 170.302734,276.237427 171.105804,276.654175 
	C170.956909,277.145813 170.635635,277.353760 170.149200,277.797241 
	C169.127182,277.903229 168.270340,277.773743 167.201675,277.397949 
z"/>
<path fill="#AFA9A6" opacity="1.000000" stroke="none" 
	d="
M252.454895,34.125351 
	C252.850861,34.182640 252.819809,34.495571 252.807587,34.652294 
	C251.139908,34.881477 249.484467,34.953938 247.413391,35.013374 
	C248.391068,33.094963 250.355087,34.287743 252.454895,34.125351 
z"/>
<path fill="#EAE9E7" opacity="1.000000" stroke="none" 
	d="
M281.361877,71.287689 
	C280.788940,70.788521 280.564514,70.493881 280.086182,70.074265 
	C280.047729,69.230095 280.537689,68.929054 281.598022,68.989960 
	C282.410461,68.991531 282.898712,69.005966 283.752808,69.038834 
	C284.260956,70.803574 283.329041,71.487488 281.361877,71.287689 
z"/>
<path fill="#B6ADAA" opacity="1.000000" stroke="none" 
	d="
M146.010773,296.557434 
	C146.025925,296.983246 145.822861,297.328278 145.632385,297.266724 
	C145.183807,295.312592 144.925674,293.420074 144.824005,291.070496 
	C147.064896,292.131622 145.611710,294.300568 146.010773,296.557434 
z"/>
<path fill="#B6ADAA" opacity="1.000000" stroke="none" 
	d="
M241.808990,226.625641 
	C240.163376,226.908173 238.372849,226.824524 236.372986,226.427505 
	C237.997131,226.162582 239.830597,226.211029 241.808990,226.625641 
z"/>
<path fill="#CCC7C4" opacity="1.000000" stroke="none" 
	d="
M325.455383,119.004898 
	C323.536316,117.397652 325.334534,115.724380 325.720490,113.982460 
	C326.002533,115.591927 325.900024,117.193680 325.455383,119.004898 
z"/>
<path fill="#F7F6F5" opacity="1.000000" stroke="none" 
	d="
M133.219391,245.546631 
	C133.132431,246.377731 133.021698,246.815643 132.856323,247.589539 
	C132.801697,247.925507 132.487137,247.944244 132.330200,247.958252 
	C132.178864,246.081009 132.184464,244.189774 132.575714,242.173279 
	C133.039429,243.083191 133.117538,244.118332 133.219391,245.546631 
z"/>
<path fill="#3A241C" opacity="1.000000" stroke="none" 
	d="
M158.166382,158.262329 
	C159.600983,158.326218 160.229904,159.096756 159.339264,160.738754 
	C158.166214,160.448105 158.028198,159.571274 158.166382,158.262329 
z"/>
<path fill="#7C6E68" opacity="1.000000" stroke="none" 
	d="
M230.350677,257.954285 
	C229.951218,257.875183 229.980164,257.491180 229.957565,257.299988 
	C231.381393,257.204956 232.827820,257.301056 234.538208,257.635742 
	C233.451477,257.927338 232.100800,257.980377 230.350677,257.954285 
z"/>
<path fill="#EAE9E7" opacity="1.000000" stroke="none" 
	d="
M135.554321,227.156708 
	C136.410843,228.505203 136.237686,229.925278 135.442032,231.535126 
	C135.160919,230.244415 135.176163,228.750305 135.554321,227.156708 
z"/>
<path fill="#B0A096" opacity="1.000000" stroke="none" 
	d="
M266.480713,34.946976 
	C266.065613,34.944424 265.968048,34.516708 266.003967,34.300476 
	C267.618622,34.142849 269.197357,34.201447 270.914276,34.629669 
	C269.666901,34.982704 268.281372,34.966114 266.480713,34.946976 
z"/>
<path fill="#746560" opacity="1.000000" stroke="none" 
	d="
M248.553314,227.002930 
	C247.734024,228.736542 246.198318,227.822784 244.497528,227.367020 
	C245.553741,227.094650 246.857635,227.026520 248.553314,227.002930 
z"/>
<path fill="#F7F6F5" opacity="1.000000" stroke="none" 
	d="
M218.045715,299.357727 
	C219.488647,298.471832 221.037659,298.915466 222.722214,299.553345 
	C221.297150,299.858459 219.743652,299.790192 218.045715,299.357727 
z"/>
<path fill="#D9D3D3" opacity="1.000000" stroke="none" 
	d="
M212.887054,298.347473 
	C214.404602,297.281158 216.023636,298.034027 217.875793,298.730347 
	C216.417023,298.972656 214.757339,298.842346 212.887054,298.347473 
z"/>
<path fill="#B0A096" opacity="1.000000" stroke="none" 
	d="
M322.833923,86.487717 
	C322.421387,85.756546 322.038788,84.649239 321.848450,83.234764 
	C323.900452,83.579033 322.775330,85.002213 322.833923,86.487717 
z"/>
<path fill="#7C6E68" opacity="1.000000" stroke="none" 
	d="
M136.104553,340.083313 
	C136.476242,340.058319 136.437836,340.016815 136.411987,340.004395 
	C136.380463,340.598724 136.374802,341.205505 136.048569,341.895325 
	C135.727997,341.978394 135.433838,342.052643 135.282562,342.052856 
	C135.108185,341.335632 134.911011,340.564362 136.104553,340.083313 
z"/>
<path fill="#EAE9E7" opacity="1.000000" stroke="none" 
	d="
M163.420273,275.067383 
	C164.060120,275.158081 164.354050,275.298004 164.796448,275.669189 
	C164.038956,275.807404 163.102997,275.777313 162.004822,275.426697 
	C162.263168,275.088593 162.683777,275.071075 163.420273,275.067383 
z"/>
<path fill="#C0B8B5" opacity="1.000000" stroke="none" 
	d="
M326.040466,96.767769 
	C324.355988,96.938210 325.076324,95.532295 324.915283,94.211578 
	C326.375397,94.270653 325.982361,95.410194 326.040466,96.767769 
z"/>
<path fill="#746560" opacity="1.000000" stroke="none" 
	d="
M156.665695,132.142090 
	C156.846329,132.881424 156.700851,133.741531 156.288055,134.794128 
	C156.127014,134.078690 156.233307,133.170776 156.665695,132.142090 
z"/>
<path fill="#62514B" opacity="1.000000" stroke="none" 
	d="
M155.264984,259.276855 
	C154.881317,258.267487 155.281601,257.354309 157.012375,257.016571 
	C156.791809,257.687317 156.154434,258.361694 155.264984,259.276855 
z"/>
<path fill="#62514B" opacity="1.000000" stroke="none" 
	d="
M155.966293,147.292221 
	C156.940460,147.452652 156.953400,148.379349 156.995667,149.634827 
	C155.790771,149.582230 156.008636,148.554092 155.966293,147.292221 
z"/>
<path fill="#9A8A86" opacity="1.000000" stroke="none" 
	d="
M145.016235,289.673401 
	C143.777725,289.595764 143.947968,288.458832 143.886322,287.109619 
	C145.374878,287.166534 145.034943,288.291595 145.016235,289.673401 
z"/>
<path fill="#7C4D2C" opacity="1.000000" stroke="none" 
	d="
M110.337158,238.700638 
	C109.392685,239.179214 108.567154,238.779816 108.065407,237.339722 
	C108.747917,237.452957 109.446037,237.942932 110.337158,238.700638 
z"/>
<path fill="#7C6E68" opacity="1.000000" stroke="none" 
	d="
M146.603027,265.545105 
	C147.127838,265.665283 147.617981,265.809052 148.488220,265.997833 
	C148.634964,266.466156 148.401611,266.889465 147.958191,267.468994 
	C147.608871,267.518158 147.469620,267.411163 147.140091,267.122040 
	C146.811996,266.746948 146.674179,266.553955 146.541519,266.005310 
	C146.546661,265.649658 146.568390,265.568695 146.603027,265.545105 
z"/>
<path fill="#B6ADAA" opacity="1.000000" stroke="none" 
	d="
M145.125641,306.210510 
	C145.329147,305.846100 145.758057,305.742096 145.914444,305.897797 
	C145.913391,306.686890 145.755951,307.320251 145.288162,308.090546 
	C144.959259,307.676605 144.940689,307.125732 145.125641,306.210510 
z"/>
<path fill="#62514B" opacity="1.000000" stroke="none" 
	d="
M152.366776,261.171417 
	C152.601608,260.679474 153.188736,260.302734 154.145752,259.971649 
	C153.916779,260.440399 153.317932,260.863525 152.366776,261.171417 
z"/>
<path fill="#746560" opacity="1.000000" stroke="none" 
	d="
M137.847977,331.727112 
	C137.429977,331.884430 137.154495,331.895844 136.471680,331.978271 
	C135.999374,331.140533 136.589951,330.921906 137.662567,330.807648 
	C138.027756,331.035370 138.023941,331.308502 137.847977,331.727112 
z"/>
<path fill="#62514B" opacity="1.000000" stroke="none" 
	d="
M159.184769,255.091522 
	C159.175934,254.964920 159.369553,254.648438 159.787537,254.166595 
	C159.803665,254.301376 159.595444,254.601486 159.184769,255.091522 
z"/>
<path fill="#EAE9E7" opacity="1.000000" stroke="none" 
	d="
M160.942596,274.308594 
	C161.137299,274.264648 161.410400,274.489014 161.806641,274.951965 
	C161.626877,274.986023 161.323929,274.781464 160.942596,274.308594 
z"/>
<path fill="#B0A096" opacity="1.000000" stroke="none" 
	d="
M322.008850,82.723373 
	C321.752197,82.846672 321.419708,82.701744 321.038513,82.248886 
	C321.304199,82.112358 321.618652,82.283752 322.008850,82.723373 
z"/>
<path fill="#62514B" opacity="1.000000" stroke="none" 
	d="
M146.385071,265.683716 
	C146.643509,265.855682 146.740341,266.061737 146.893494,266.603821 
	C146.621399,266.867401 146.368073,266.688538 146.096558,266.183655 
	C146.003296,265.963989 146.223480,265.717804 146.385071,265.683716 
z"/>
<path fill="#7D4C2A" opacity="1.000000" stroke="none" 
	d="
M196.530426,183.315948 
	C197.617477,182.784668 198.480103,182.461899 199.682068,182.069000 
	C204.312439,179.469925 208.654541,177.019958 213.122650,174.829605 
	C230.507919,166.306976 242.969482,153.475983 249.117401,134.797165 
	C253.391998,121.809914 258.201843,109.051483 267.238342,98.374474 
	C273.203613,91.326256 279.578613,84.859085 288.086639,80.866295 
	C290.203888,79.872658 292.234711,78.687836 295.071106,79.313492 
	C298.197418,81.262772 298.834106,84.270081 299.632477,87.144089 
	C303.039520,99.409225 302.370697,111.729713 298.574707,123.634773 
	C288.456573,155.367767 267.620758,177.473145 236.954208,190.372849 
	C231.699432,192.583252 226.037857,193.138107 220.301117,194.746643 
	C208.914978,195.862732 198.388840,193.754028 188.185043,188.465240 
	C188.932770,186.498627 190.892517,186.253311 192.728149,185.170151 
	C192.979233,184.934357 192.997635,184.996368 192.973328,184.975006 
	C193.924911,184.141129 195.264374,184.182571 196.530426,183.315948 
z"/>
<path fill="#5A3115" opacity="1.000000" stroke="none" 
	d="
M220.481934,195.021088 
	C218.521637,193.487427 219.082779,193.233932 220.975952,192.878113 
	C234.054108,190.420212 246.184692,185.593781 256.928986,177.641937 
	C278.061310,162.001892 293.227692,142.298325 298.514038,115.959816 
	C300.958282,103.781708 300.338470,91.874702 295.151031,80.015915 
	C294.926453,78.103485 295.868286,77.021164 297.069122,76.527695 
	C302.230408,74.406708 307.286346,71.709343 313.578369,72.806824 
	C314.918488,78.785248 316.968536,84.357010 317.235657,90.473305 
	C317.615814,99.177238 316.961029,107.662102 314.758270,115.993034 
	C310.606110,131.696701 302.571716,145.268372 292.040863,157.618744 
	C280.374146,171.301208 266.393433,181.631088 249.882736,188.479980 
	C240.663147,192.304413 231.100449,195.147598 220.481934,195.021088 
z"/>
<path fill="#000000" opacity="1.000000" stroke="none" 
	d="
M313.791992,72.626541 
	C307.803986,75.018242 301.117096,75.550049 295.248535,79.408051 
	C277.224182,86.020119 266.246826,99.585785 258.212189,115.715981 
	C253.996613,124.179146 251.460510,133.464294 247.870560,142.257629 
	C243.937805,151.890564 237.432007,159.462128 229.496582,166.292419 
	C220.790833,173.785751 210.481308,177.812302 200.201935,182.241364 
	C202.038132,177.954239 206.516479,177.212524 209.769821,174.837646 
	C223.788040,164.604568 232.596481,150.838287 237.601303,134.474594 
	C240.692825,124.366623 243.896683,114.292870 248.708435,104.871727 
	C250.853653,100.671509 253.937469,96.950676 256.767639,92.775047 
	C259.132263,91.628738 259.064056,88.946716 260.955200,87.373085 
	C261.232941,86.855019 261.324738,86.619469 261.764740,86.233749 
	C262.112946,86.083580 262.066864,86.029572 262.045410,86.057846 
	C262.214935,85.809418 262.438477,85.562172 262.888306,85.184586 
	C263.082062,85.024872 263.049988,85.109550 263.088257,85.134750 
	C264.981537,83.301987 266.836517,81.444016 268.847351,79.297585 
	C270.760559,79.464973 271.398254,77.955597 272.714966,76.939041 
	C274.636871,75.785309 276.238892,74.769119 277.930603,73.433189 
	C279.186188,73.111183 280.098663,72.605484 280.913544,71.395332 
	C282.266174,71.232346 283.119049,70.572029 283.987701,69.367851 
	C285.448181,68.896591 286.907990,69.101578 287.973267,67.437668 
	C291.578339,67.284271 294.690826,66.179405 297.809204,64.278908 
	C300.587921,65.196846 302.905823,63.218075 305.687805,63.024136 
	C309.125061,62.425293 308.781616,65.600204 310.085175,67.020180 
	C311.506989,68.568954 312.463287,70.545097 313.791992,72.626541 
z"/>
<path fill="#B0A096" opacity="1.000000" stroke="none" 
	d="
M192.623245,184.879715 
	C192.399933,187.226303 189.927231,186.797440 188.248322,188.121643 
	C187.454010,184.680862 190.823914,185.977646 192.623245,184.879715 
z"/>
<path fill="#B0A096" opacity="1.000000" stroke="none" 
	d="
M196.430420,183.087463 
	C196.457047,184.915634 195.138748,185.238205 193.282623,185.108551 
	C193.528229,183.533051 194.794434,183.262314 196.430420,183.087463 
z"/>
<path fill="#62514B" opacity="1.000000" stroke="none" 
	d="
M261.888428,86.073807 
	C262.021301,86.406845 261.841980,86.670441 261.358063,86.982475 
	C260.503326,86.334839 260.979889,86.146606 261.888428,86.073807 
z"/>
<path fill="#62514B" opacity="1.000000" stroke="none" 
	d="
M262.858337,85.149948 
	C262.897797,85.319435 262.713531,85.613998 262.276611,85.997345 
	C262.227509,85.815758 262.431030,85.545387 262.858337,85.149948 
z"/>
</svg>