<?xml version="1.0" standalone="no"?>
<!DOCTYPE svg PUBLIC "-//W3C//DTD SVG 20010904//EN"
 "http://www.w3.org/TR/2001/REC-SVG-20010904/DTD/svg10.dtd">
<svg version="1.0" xmlns="http://www.w3.org/2000/svg"
 width="960.000000pt" height="539.000000pt" viewBox="0 0 960.000000 539.000000"
 preserveAspectRatio="xMidYMid meet">

<g transform="translate(0.000000,539.000000) scale(0.100000,-0.100000)"
fill="#000000" stroke="none">
<path d="M5538 4720 c-201 -34 -413 -151 -578 -319 -188 -192 -299 -410 -330
-653 -13 -95 -3 -216 26 -313 25 -87 22 -87 129 1 53 43 127 100 164 126 142
98 237 232 314 443 24 66 56 145 72 175 89 178 231 306 405 366 93 33 137 28
54 -5 -132 -54 -282 -174 -369 -296 -62 -88 -108 -184 -160 -341 -26 -76 -62
-170 -80 -209 -58 -121 -167 -231 -305 -310 -81 -45 -40 -35 55 14 129 67 242
175 303 289 17 31 58 122 92 202 33 79 80 176 105 215 75 120 198 231 335 300
54 28 224 75 345 96 36 6 65 15 65 19 0 16 -174 126 -241 152 -127 51 -276 69
-401 48z"/>
<path d="M6072 4448 c-34 -12 -61 -23 -59 -25 2 -2 34 3 70 11 l67 13 25 -43
c36 -61 33 -69 -29 -83 -61 -14 -193 -76 -246 -115 -124 -93 -217 -220 -276
-374 -71 -186 -97 -244 -137 -304 -47 -71 -140 -150 -228 -196 -102 -52 -311
-143 -316 -138 -3 3 23 18 58 34 144 66 288 193 357 315 22 40 66 146 97 237
67 194 107 279 181 376 46 60 77 92 163 162 10 8 5 7 -14 -2 -51 -26 -127 -92
-192 -167 -70 -83 -130 -192 -198 -359 -61 -150 -97 -212 -164 -284 -87 -92
-185 -153 -324 -202 -98 -35 -134 -59 -140 -92 -11 -57 150 -169 298 -206 237
-59 513 4 750 172 83 58 254 229 328 327 134 179 205 416 177 589 -22 137
-127 367 -170 373 -8 1 -43 -8 -78 -19z"/>
<path d="M3729 4124 c-126 -248 -154 -313 -193 -446 -78 -269 -36 -511 124
-708 63 -78 106 -117 260 -232 74 -56 167 -125 206 -154 168 -127 270 -245
316 -369 21 -54 23 -77 22 -220 -1 -150 -3 -169 -36 -295 -20 -74 -34 -136
-33 -138 5 -6 76 208 97 293 15 66 21 121 21 205 0 107 -3 126 -38 235 -4 15
11 41 60 102 115 144 272 247 446 295 74 20 106 23 274 22 167 0 205 -4 315
-27 154 -33 280 -67 280 -76 0 -4 -13 -14 -29 -24 -16 -9 -95 -68 -177 -131
-241 -187 -340 -235 -479 -236 -76 0 -230 31 -345 69 -63 22 -116 38 -117 37
-5 -5 175 -102 264 -143 247 -114 421 -137 601 -77 102 34 154 62 327 174 83
54 164 104 180 113 68 34 182 68 327 97 84 18 154 33 155 34 5 4 -428 145
-542 176 -173 48 -393 89 -543 101 -434 35 -754 -99 -953 -399 l-53 -81 -40
67 c-26 43 -104 132 -230 262 -233 239 -302 323 -361 443 -58 117 -80 221 -72
337 8 113 28 185 86 305 74 153 66 149 137 63 34 -40 112 -129 174 -198 236
-261 314 -415 304 -597 -3 -39 -18 -136 -34 -215 -16 -79 -29 -161 -29 -183
l1 -40 9 50 c5 28 24 106 44 175 50 173 61 261 46 351 -24 147 -103 292 -278
509 -155 193 -194 246 -241 325 -35 60 -94 218 -128 344 -9 34 -11 30 -125
-195z"/>
<path d="M3981 3436 c-33 -96 15 -228 139 -376 73 -88 127 -183 175 -308 16
-39 29 -71 30 -70 4 4 -22 166 -35 223 -19 82 -69 171 -143 253 -107 119 -140
175 -147 252 l-5 65 -14 -39z"/>
<path d="M5049 2560 c-134 -17 -301 -87 -379 -159 l-45 -42 51 25 c142 69 570
130 743 106 45 -6 85 -9 87 -7 8 8 -108 47 -184 61 -100 19 -203 25 -273 16z"/>
<path d="M3222 1043 l-42 -4 2 -362 3 -362 145 1 c124 1 153 4 201 23 81 31
143 75 184 131 50 68 67 122 68 210 0 254 -216 394 -561 363z m293 -73 c64
-35 120 -107 145 -189 23 -72 25 -117 9 -193 -22 -104 -90 -198 -155 -214 -30
-8 -191 1 -216 11 -17 7 -18 30 -18 295 0 319 -3 307 68 320 55 11 111 1 167
-30z"/>
<path d="M4639 1036 c-132 -47 -168 -170 -84 -287 l38 -53 -30 -25 c-111 -97
-129 -217 -44 -302 80 -80 223 -77 324 7 l29 24 41 -45 42 -46 48 16 c26 9 47
20 47 24 0 4 -26 33 -59 65 l-59 58 23 57 c26 64 50 210 36 224 -4 4 -26 7
-47 5 l-39 -3 -6 -98 c-4 -55 -11 -103 -17 -109 -10 -10 -181 167 -173 180 2
4 25 15 51 25 29 10 63 34 84 57 32 36 36 46 36 94 0 71 -30 109 -103 131 -61
18 -90 18 -138 1z m111 -48 c42 -69 19 -180 -46 -222 -24 -16 -26 -16 -44 6
-33 38 -52 119 -41 167 12 56 36 81 78 81 27 0 37 -6 53 -32z m-57 -395 c147
-158 151 -162 136 -179 -56 -68 -195 -56 -245 21 -21 32 -23 128 -4 165 13 25
40 60 47 60 1 0 32 -30 66 -67z"/>
<path d="M5763 1043 l-33 -4 0 -366 0 -366 143 6 c185 7 258 30 325 100 23 24
35 48 39 76 14 100 -60 166 -232 206 l-30 8 34 14 c125 53 180 147 136 233
-35 67 -221 113 -382 93z m204 -49 c19 -9 46 -32 60 -51 22 -28 25 -41 21 -83
-3 -29 -13 -59 -23 -70 -23 -26 -109 -67 -157 -76 l-38 -6 0 144 c0 80 3 148
7 151 12 13 95 7 130 -9z m52 -340 c32 -16 65 -43 83 -68 26 -36 29 -47 26
-94 -9 -100 -68 -146 -183 -139 -117 6 -115 4 -115 167 0 159 0 159 86 160 35
0 66 -8 103 -26z"/>
<path d="M6525 1042 l-30 -7 -3 -358 -2 -357 55 0 55 0 0 334 c0 373 -6 346
74 346 82 0 146 -69 146 -158 0 -85 -58 -152 -163 -188 -42 -14 -46 -18 -35
-32 7 -9 71 -83 142 -165 l129 -148 46 7 c25 4 48 8 50 10 4 4 -172 195 -228
248 -17 17 -31 33 -31 37 0 4 22 21 49 39 201 128 201 315 1 374 -62 18 -209
29 -255 18z"/>
<path d="M800 680 l0 -360 25 0 25 0 0 252 c0 158 4 248 9 243 6 -6 59 -98
118 -205 60 -107 115 -196 123 -197 10 -2 54 64 130 197 l115 199 3 -244 2
-245 50 0 50 0 0 361 c0 330 -1 360 -17 357 -9 -2 -72 -99 -147 -230 -72 -125
-136 -231 -141 -237 -7 -6 -56 72 -145 230 -133 235 -136 239 -167 239 l-33 0
0 -360z"/>
<path d="M1720 680 l0 -360 200 0 c193 0 200 1 200 20 0 18 -7 20 -82 21 -46
0 -112 1 -148 2 l-65 2 -3 153 -3 152 121 0 120 0 0 25 0 25 -120 0 -120 0 0
135 0 135 151 0 c150 0 150 0 147 23 -3 22 -4 22 -200 25 l-198 2 0 -360z"/>
<path d="M2360 680 l0 -360 25 0 25 0 2 273 3 272 235 -273 c143 -166 241
-272 252 -272 17 0 18 21 18 360 0 353 0 360 -20 360 -20 0 -20 -7 -20 -271 0
-149 -4 -269 -8 -267 -7 2 -192 216 -416 481 -34 40 -56 57 -72 57 l-24 0 0
-360z"/>
<path d="M7220 680 l0 -360 200 0 c193 0 200 1 200 20 0 11 -6 20 -12 20 -7 1
-73 1 -145 1 l-133 0 0 154 0 155 115 0 115 0 0 25 0 25 -115 0 -115 0 0 135
0 135 145 0 145 0 0 25 0 25 -200 0 -200 0 0 -360z"/>
<path d="M7850 1028 c1 -27 228 -712 237 -715 5 -2 61 104 124 237 63 132 118
239 122 237 4 -1 56 -109 115 -239 59 -131 112 -238 118 -238 6 0 22 37 36 83
14 45 64 201 112 347 47 146 89 273 92 283 5 15 1 18 -22 15 -28 -3 -30 -8
-111 -272 -45 -148 -84 -271 -86 -273 -2 -2 -54 98 -115 222 -61 124 -115 225
-119 225 -5 0 -58 -99 -118 -220 -80 -161 -112 -216 -117 -203 -4 10 -44 132
-89 271 l-81 252 -49 0 c-33 0 -49 -4 -49 -12z"/>
</g>
</svg>
